<?xml version="1.0" encoding="UTF-8"?>
<svg width="400px" height="167px" viewBox="0 0 400 167" version="1.1" xmlns="http://www.w3.org/2000/svg" xmlns:xlink="http://www.w3.org/1999/xlink">
    <!-- Generator: Sketch 43.2 (39069) - http://www.bohemiancoding.com/sketch -->
    <title>logo</title>
    <desc>Created with Sketch.</desc>
    <defs></defs>
    <g id="Page-1" stroke="none" stroke-width="1" fill="none" fill-rule="evenodd">
        <g id="logo" transform="translate(-1.000000, -1.000000)" fill-rule="nonzero" fill="#2575BB">
            <rect id="Rectangle-path" x="364.3" y="1" width="36.7" height="166.01" rx="1.62"></rect>
            <rect id="Rectangle-path" x="296.33" y="1" width="36.7" height="166.01" rx="1.64"></rect>
            <rect id="Rectangle-path" x="228.36" y="1" width="36.7" height="166.01" rx="1.64"></rect>
            <path d="M31.91,98.45 C19.8403423,93.2444701 10.2145022,83.6257841 5,71.56 C2.29961823,65.3008867 0.93715912,58.5464956 1,51.73 C0.938119675,44.9103652 2.30051043,38.152907 5,31.89 C10.2179073,19.8265302 19.842654,10.2089367 31.91,5 C38.1712248,2.29513263 44.9298322,0.932510181 51.75,1 L244.89,1 C249.754318,0.923873345 254.435062,2.85549398 257.83,6.34 C261.334909,9.74588195 263.268789,14.4538299 263.17,19.34 C263.271211,24.2266226 261.33695,28.935499 257.83,32.34 C254.439153,35.8305473 249.755678,37.763295 244.89,37.68 L51,37.68 C47.2374457,37.660456 43.6124092,39.0932768 40.88,41.68 C38.0109582,44.2424958 36.4099733,47.9342646 36.5,51.78 C36.4819361,55.5592712 38.0749617,59.1672196 40.88,61.7 C43.5651153,64.3772602 47.2082834,65.8712471 51,65.85 L146.81,65.85 C153.69645,65.7992409 160.520217,67.1605909 166.86,69.85 C179.093046,74.9626407 188.816399,84.6931799 193.92,96.93 C196.606786,103.253046 197.968169,110.059963 197.92,116.93 C197.982841,123.746496 196.620382,130.500887 193.92,136.76 C191.332231,142.725437 187.648549,148.152593 183.06,152.76 C178.429676,157.368921 172.920706,161.00076 166.86,163.44 C160.490706,166.011987 153.678809,167.309815 146.81,167.26 L19.8,167.26 C14.9140558,167.35758 10.2065709,165.42389 6.8,161.92 C-0.313947279,154.740461 -0.313947279,143.169539 6.8,135.99 C10.2065709,132.48611 14.9140558,130.55242 19.8,130.65 L148.33,130.65 C152.03114,130.688978 155.594762,129.24913 158.23,126.65 C160.944769,124.148657 162.468128,120.61112 162.42,116.92 C162.505172,113.055452 160.988722,109.327663 158.23,106.62 C155.647523,103.920019 152.066097,102.404244 148.33,102.43 L51.75,102.43 C44.931256,102.503801 38.1727065,101.148004 31.91,98.45 L31.91,98.45 Z" id="Shape"></path>
            <path d="M230.56,34.58 L230.42,56.87 L228.42,57.19 C228.474986,52.0167779 226.382063,47.0524238 222.64,43.48 C219.244185,40.0046031 214.679555,37.9129263 209.83,37.61 L209.83,34.61 L230.56,34.58 Z" id="Shape"></path>
        </g>
    </g>
</svg>