<svg xmlns="http://www.w3.org/2000/svg" viewBox="0 0 400 166.3"><defs><style>.cls-1{fill:#2575bb;}</style></defs><title>Asset 1</title><g id="Layer_2" data-name="Layer 2"><g id="Layer_1-2" data-name="Layer 1"><g id="Logo"><rect class="cls-1" x="363.3" width="36.7" height="166.01" rx="1.62" ry="1.62"/><rect class="cls-1" x="295.33" width="36.7" height="166.01" rx="1.64" ry="1.64"/><rect class="cls-1" x="227.36" width="36.7" height="166.01" rx="1.64" ry="1.64"/><path class="cls-1" d="M30.91,97.45A51.56,51.56,0,0,1,4,70.56,48.92,48.92,0,0,1,0,50.73,49,49,0,0,1,4,30.89,51.6,51.6,0,0,1,30.91,4,48.81,48.81,0,0,1,50.75,0H243.89a17.68,17.68,0,0,1,12.94,5.34,17.63,17.63,0,0,1,5.34,13,17.61,17.61,0,0,1-5.34,13,17.62,17.62,0,0,1-12.94,5.34H50a14.61,14.61,0,0,0-10.12,4,13.13,13.13,0,0,0-4.38,10.1,13.28,13.28,0,0,0,4.38,9.92A14.22,14.22,0,0,0,50,64.85h95.81a50.39,50.39,0,0,1,20.05,4,50.36,50.36,0,0,1,27.06,27.08,50.24,50.24,0,0,1,4,20,48.92,48.92,0,0,1-4,19.83,52,52,0,0,1-10.86,16,48.78,48.78,0,0,1-16.2,10.68,52.53,52.53,0,0,1-20.05,3.82H18.8a17.64,17.64,0,0,1-13-5.34,18.42,18.42,0,0,1,0-25.93,17.64,17.64,0,0,1,13-5.34H147.33a13.89,13.89,0,0,0,9.9-4,13,13,0,0,0,4.19-9.73,14,14,0,0,0-4.19-10.3,13.57,13.57,0,0,0-9.9-4.19H50.75A48.81,48.81,0,0,1,30.91,97.45Z"/><path class="cls-1" d="M229.56,33.58l-.14,22.29-2,.32a18.68,18.68,0,0,0-5.78-13.71,19.62,19.62,0,0,0-12.81-5.87c0-.2,0-3,0-3Z"/></g></g></g></svg>